<svg width="1124" height="776" viewBox="0 0 1124 776" fill="none" xmlns="http://www.w3.org/2000/svg">
<g clip-path="url(#clip0_202_45)">
<mask id="mask0_202_45" style="mask-type:luminance" maskUnits="userSpaceOnUse" x="0" y="0" width="1124" height="776">
<path d="M1124 0H0V776H1124V0Z" fill="white"/>
</mask>
<g mask="url(#mask0_202_45)">
<path d="M562 776C872.384 776 1124 759.435 1124 739C1124 718.565 872.384 702 562 702C251.616 702 0 718.565 0 739C0 759.435 251.616 776 562 776Z" fill="#333333"/>
<path d="M562 278C594.033 278 620 254.271 620 225C620 195.729 594.033 172 562 172C529.967 172 504 195.729 504 225C504 254.271 529.967 278 562 278Z" fill="#0077CC"/>
<path d="M664.5 710.5C664.5 710.5 541 760 453.5 711.5L454.31 697.5L461.85 567.5L468.98 444.5L477.5 297.5H641.5L649.38 444.5L655.98 567.5L662.95 697.5L664.5 710.5Z" fill="#333333"/>
<path d="M664.5 710.5C664.5 710.5 551 761 453.5 711.5L454.31 697.5H662.95L664.5 710.5Z" fill="#0077CC"/>
<path d="M655.98 567.5H461.85L468.98 444.5H649.38L655.98 567.5Z" fill="#0077CC"/>
<path d="M651.5 281.5H467.5V301.5H651.5V281.5Z" fill="#333333"/>
<path d="M651.5 214.5H467.5V234.5H651.5V214.5Z" fill="#333333"/>
<path d="M494.5 234.5H483.5V286.5H494.5V234.5Z" fill="#333333"/>
<path d="M523.5 234.5H512.5V286.5H523.5V234.5Z" fill="#333333"/>
<path d="M552.5 234.5H541.5V286.5H552.5V234.5Z" fill="#333333"/>
<path d="M581.5 234.5H570.5V286.5H581.5V234.5Z" fill="#333333"/>
<path d="M610.5 234.5H599.5V286.5H610.5V234.5Z" fill="#333333"/>
<path d="M523.5 155H512.5V223.5H523.5V155Z" fill="#333333"/>
<path d="M552.5 155H541.5V223.5H552.5V155Z" fill="#333333"/>
<path d="M581.5 155H570.5V223.5H581.5V155Z" fill="#333333"/>
<path d="M610.5 155H599.5V223.5H610.5V155Z" fill="#333333"/>
<path d="M639.5 234.5H628.5V286.5H639.5V234.5Z" fill="#333333"/>
<path d="M495 163H484V224H495V163Z" fill="#333333"/>
<path d="M640 163H629V224H640V163Z" fill="#333333"/>
<path d="M652 174.5H468V114.5L560 40L652 114.5V174.5Z" fill="#333333"/>
<path opacity="0.3" d="M562 378.695C647.436 378.695 716.695 309.436 716.695 224C716.695 138.564 647.436 69.3047 562 69.3047C476.564 69.3047 407.305 138.564 407.305 224C407.305 309.436 476.564 378.695 562 378.695Z" fill="#0077CC"/>
<path opacity="0.3" d="M562 439C680.741 439 777 342.741 777 224C777 105.259 680.741 9 562 9C443.259 9 347 105.259 347 224C347 342.741 443.259 439 562 439Z" fill="#0077CC"/>
<path d="M51.4082 692.734C57.4814 715.185 78.2833 729.088 78.2833 729.088C78.2833 729.088 89.2388 706.594 83.1656 684.143C77.0924 661.693 56.2905 647.79 56.2905 647.79C56.2905 647.79 45.3351 670.284 51.4082 692.734Z" fill="#DDDDDD"/>
<g filter="url(#filter0_d_202_45)">
<path d="M60.333 687.91C76.9978 704.132 79.0333 729.07 79.0333 729.07C79.0333 729.07 54.0498 727.706 37.3849 711.483C20.7201 695.261 18.6846 670.323 18.6846 670.323C18.6846 670.323 43.6681 671.687 60.333 687.91Z" fill="#333333"/>
</g>
<path d="M316.757 660.408C307.804 693.505 277.138 714.002 277.138 714.002C277.138 714.002 260.987 680.84 269.94 647.743C278.893 614.647 309.56 594.15 309.56 594.15C309.56 594.15 325.71 627.312 316.757 660.408Z" fill="#CCCACA"/>
<g filter="url(#filter1_d_202_45)">
<path d="M235.309 660.408C244.262 693.505 274.929 714.002 274.929 714.002C274.929 714.002 291.079 680.84 282.126 647.743C273.173 614.647 242.507 594.15 242.507 594.15C242.507 594.15 226.356 627.312 235.309 660.408Z" fill="#DDDDDD"/>
</g>
<path d="M248.465 653.296C273.033 677.211 276.033 713.975 276.033 713.975C276.033 713.975 239.202 711.964 214.635 688.048C190.067 664.133 187.066 627.369 187.066 627.369C187.066 627.369 223.898 629.38 248.465 653.296Z" fill="#333333"/>
<path d="M303.602 653.296C279.034 677.211 276.033 713.975 276.033 713.975C276.033 713.975 312.864 711.964 337.432 688.048C361.999 664.133 365 627.369 365 627.369C365 627.369 328.169 629.38 303.602 653.296Z" fill="#333333"/>
</g>
<g filter="url(#filter2_i_202_45)">
<path d="M1026.91 562H756C747.163 562 740 569.163 740 578V734.627C740 743.464 747.163 750.627 756 750.627H1026.91C1035.75 750.627 1042.91 743.464 1042.91 734.627V578C1042.91 569.163 1035.75 562 1026.91 562Z" fill="#0077CC"/>
</g>
<path d="M816.681 598H761V634.192H816.681V598Z" fill="#DDDDDD"/>
<path d="M885.681 598H830V634.192H885.681V598Z" fill="#DDDDDD"/>
<path d="M954.681 598H899V634.192H954.681V598Z" fill="#DDDDDD"/>
<path d="M1023.68 598H968V634.192H1023.68V598Z" fill="#DDDDDD"/>
<path d="M816.681 650H761V686.192H816.681V650Z" fill="#DDDDDD"/>
<path d="M885.681 650H830V686.192H885.681V650Z" fill="#DDDDDD"/>
<path d="M954.681 650H899V686.192H954.681V650Z" fill="#DDDDDD"/>
<path d="M1023.68 650H968V686.192H1023.68V650Z" fill="#DDDDDD"/>
<path d="M816.681 701H761V737.192H816.681V701Z" fill="#DDDDDD"/>
<path d="M885.681 701H830V737.192H885.681V701Z" fill="#DDDDDD"/>
<path d="M954.681 701H899V737.192H954.681V701Z" fill="#DDDDDD"/>
<path d="M1023.68 701H968V737.192H1023.68V701Z" fill="#DDDDDD"/>
<path d="M820.352 584.704C824.965 584.704 828.704 580.965 828.704 576.352C828.704 571.739 824.965 568 820.352 568C815.739 568 812 571.739 812 576.352C812 580.965 815.739 584.704 820.352 584.704Z" fill="#DDDDDD"/>
<path d="M958.352 584.704C962.965 584.704 966.704 580.965 966.704 576.352C966.704 571.739 962.965 568 958.352 568C953.739 568 950 571.739 950 576.352C950 580.965 953.739 584.704 958.352 584.704Z" fill="#DDDDDD"/>
<path d="M822.682 540H816V578.42H822.682V540Z" fill="#DDDDDD"/>
<path d="M960.682 540H954V578.42H960.682V540Z" fill="#DDDDDD"/>
<path d="M1008.11 616.568C1008.11 619.592 1007.02 622.513 1005.03 624.795C1003.05 627.076 1000.31 628.566 997.312 628.989C994.318 629.412 991.272 628.74 988.734 627.097C986.195 625.454 984.335 622.95 983.495 620.046C982.654 617.141 982.89 614.031 984.159 611.286C985.429 608.542 987.645 606.347 990.403 605.106C993.16 603.865 996.273 603.661 999.169 604.531C1002.06 605.401 1004.55 607.287 1006.17 609.842C1007.44 611.854 1008.11 614.187 1008.11 616.568Z" fill="#333333"/>
<path d="M1006.51 609.875L994.119 622.267C993.34 621.061 989 615.456 989 615.456C989.556 614.894 990.15 614.37 990.777 613.888L994.375 618.687L1005.06 608C1005.6 608.578 1006.09 609.206 1006.51 609.875Z" fill="white"/>
<path d="M870.112 667.568C870.109 670.592 869.015 673.513 867.031 675.795C865.047 678.076 862.306 679.566 859.312 679.989C856.318 680.412 853.272 679.74 850.734 678.097C848.195 676.454 846.335 673.95 845.495 671.046C844.654 668.141 844.89 665.031 846.159 662.286C847.429 659.542 849.645 657.347 852.403 656.106C855.16 654.865 858.273 654.661 861.169 655.531C864.064 656.401 866.549 658.287 868.166 660.842C869.439 662.854 870.114 665.187 870.112 667.568Z" fill="#333333"/>
<path d="M867.514 660.875L855.119 673.267C854.34 672.061 850 666.456 850 666.456C850.556 665.894 851.15 665.37 851.777 664.888L855.375 669.687L866.062 659C866.604 659.578 867.09 660.206 867.514 660.875Z" fill="white"/>
<path d="M801.112 667.568C801.109 670.592 800.015 673.513 798.031 675.795C796.047 678.077 793.306 679.566 790.312 679.989C787.318 680.412 784.272 679.74 781.734 678.097C779.195 676.454 777.335 673.95 776.495 671.046C775.654 668.141 775.89 665.031 777.159 662.286C778.429 659.542 780.645 657.347 783.403 656.106C786.16 654.865 789.273 654.661 792.169 655.531C795.065 656.401 797.549 658.287 799.166 660.842C800.439 662.854 801.114 665.187 801.112 667.568Z" fill="#333333"/>
<path d="M799.514 660.875L787.119 673.267C786.34 672.061 782 666.456 782 666.456C782.556 665.894 783.15 665.37 783.777 664.888L787.375 669.687L798.062 659C798.604 659.578 799.09 660.206 799.514 660.875Z" fill="white"/>
</g>
<defs>
<filter id="filter0_d_202_45" x="15.6846" y="662.323" width="72.3486" height="70.7471" filterUnits="userSpaceOnUse" color-interpolation-filters="sRGB">
<feFlood flood-opacity="0" result="BackgroundImageFix"/>
<feColorMatrix in="SourceAlpha" type="matrix" values="0 0 0 0 0 0 0 0 0 0 0 0 0 0 0 0 0 0 127 0" result="hardAlpha"/>
<feOffset dx="3" dy="-2"/>
<feGaussianBlur stdDeviation="3"/>
<feComposite in2="hardAlpha" operator="out"/>
<feColorMatrix type="matrix" values="0 0 0 0 0 0 0 0 0 0 0 0 0 0 0 0 0 0 0.54 0"/>
<feBlend mode="normal" in2="BackgroundImageFix" result="effect1_dropShadow_202_45"/>
<feBlend mode="normal" in="SourceGraphic" in2="effect1_dropShadow_202_45" result="shape"/>
</filter>
<filter id="filter1_d_202_45" x="232.605" y="594.15" width="62.2246" height="127.852" filterUnits="userSpaceOnUse" color-interpolation-filters="sRGB">
<feFlood flood-opacity="0" result="BackgroundImageFix"/>
<feColorMatrix in="SourceAlpha" type="matrix" values="0 0 0 0 0 0 0 0 0 0 0 0 0 0 0 0 0 0 127 0" result="hardAlpha"/>
<feOffset dx="6" dy="4"/>
<feGaussianBlur stdDeviation="2"/>
<feComposite in2="hardAlpha" operator="out"/>
<feColorMatrix type="matrix" values="0 0 0 0 0 0 0 0 0 0 0 0 0 0 0 0 0 0 0.25 0"/>
<feBlend mode="normal" in2="BackgroundImageFix" result="effect1_dropShadow_202_45"/>
<feBlend mode="normal" in="SourceGraphic" in2="effect1_dropShadow_202_45" result="shape"/>
</filter>
<filter id="filter2_i_202_45" x="740" y="562" width="306.913" height="192.627" filterUnits="userSpaceOnUse" color-interpolation-filters="sRGB">
<feFlood flood-opacity="0" result="BackgroundImageFix"/>
<feBlend mode="normal" in="SourceGraphic" in2="BackgroundImageFix" result="shape"/>
<feColorMatrix in="SourceAlpha" type="matrix" values="0 0 0 0 0 0 0 0 0 0 0 0 0 0 0 0 0 0 127 0" result="hardAlpha"/>
<feOffset dx="7" dy="5"/>
<feGaussianBlur stdDeviation="2"/>
<feComposite in2="hardAlpha" operator="arithmetic" k2="-1" k3="1"/>
<feColorMatrix type="matrix" values="0 0 0 0 0 0 0 0 0 0 0 0 0 0 0 0 0 0 0.25 0"/>
<feBlend mode="normal" in2="shape" result="effect1_innerShadow_202_45"/>
</filter>
<clipPath id="clip0_202_45">
<rect width="1124" height="776" fill="white"/>
</clipPath>
</defs>
</svg>
