<?xml version="1.0" standalone="no"?>
<!DOCTYPE svg PUBLIC "-//W3C//DTD SVG 20010904//EN"
 "http://www.w3.org/TR/2001/REC-SVG-20010904/DTD/svg10.dtd">
<svg version="1.0" xmlns="http://www.w3.org/2000/svg"
 width="18.000000pt" height="18.000000pt" viewBox="0 0 48.000000 48.000000"
 preserveAspectRatio="xMidYMid meet">

<g transform="translate(0.000000,48.000000) scale(0.100000,-0.100000)"
fill="#fff" stroke="none">
<path d="M72 338 c-19 -19 -14 -55 10 -72 19 -13 25 -14 43 -2 24 16 31 51 15
72 -15 17 -52 18 -68 2z"/>
<path d="M342 338 c-19 -19 -14 -55 10 -72 19 -13 25 -14 43 -2 24 16 31 51
15 72 -15 17 -52 18 -68 2z"/>
<path d="M200 320 c-11 -11 -20 -31 -20 -45 0 -30 32 -65 60 -65 28 0 60 35
60 65 0 30 -32 65 -60 65 -11 0 -29 -9 -40 -20z"/>
<path d="M44 215 c-34 -34 -26 -50 27 -52 35 -2 50 2 73 23 29 25 29 27 11 40
-31 23 -83 17 -111 -11z"/>
<path d="M327 228 c-16 -12 -14 -16 18 -41 27 -22 44 -27 72 -25 46 4 52 20
19 53 -28 28 -80 34 -109 13z"/>
<path d="M161 164 c-34 -28 -41 -68 -15 -78 9 -3 55 -6 104 -6 94 0 117 11
105 49 -20 63 -136 84 -194 35z"/>
</g>
</svg>
